<svg width="54" height="54" viewBox="0 0 54 54" fill="none" xmlns="http://www.w3.org/2000/svg">
<g clip-path="url(#clip0_1_8)">
<path d="M27 54C41.9117 54 54 41.9117 54 27C54 12.0883 41.9117 0 27 0C12.0883 0 0 12.0883 0 27C0 41.9117 12.0883 54 27 54Z" fill="#3B4254"/>
</g>
<path d="M29.1752 18.1202C29.1752 18.1202 32.283 15 38.0912 15C40.4523 15 44.6742 15.7006 47.5012 20.1077L42.9367 23.4779C42.9367 23.4779 41.6621 20.9009 37.974 20.9009C35.5236 20.9009 33.2922 22.2526 32.7336 24.4408C31.6781 20.1879 29.1783 18.1233 29.1783 18.1233M36.2272 33.434C36.2272 33.434 36.1902 34.8876 36.6254 36.6129C36.9802 38.0202 37.6592 39.3842 37.6592 39.3842C37.6592 39.3842 44.7452 39.7978 47.8036 34.0976L43.131 30.9774C43.131 30.9774 41.2886 35.1099 36.2272 33.431" fill="url(#paint0_linear_1_8)"/>
<path d="M35.4427 33.2674C35.4427 33.2674 35.4057 34.7981 35.7297 36.3969C35.9889 37.6745 36.4149 38.6313 36.6987 39.3905C29.8381 39.3905 25.3013 33.6964 25.3013 27.0456C25.3013 24.3204 23.7274 21.1663 19.635 21.1663C13.8453 21.1663 12.6015 27.0301 14.6106 31.178C16.5272 35.1346 23.0052 35.1284 24.9588 30.0022C25.394 32.4804 26.4741 34.6347 28.1561 36.4771C20.3449 42.5693 7 38.9862 7 27.7678C7 19.114 12.4997 15.1883 19.6751 15.1883C26.8506 15.1883 32.27 20.6262 32.27 27.3449C32.27 29.5145 33.2175 32.1471 35.4427 33.2674Z" fill="white"/>
<defs>
<linearGradient id="paint0_linear_1_8" x1="21.473" y1="-4.01053" x2="62.2149" y2="-0.514882" gradientUnits="userSpaceOnUse">
<stop stop-color="#005DB1"/>
<stop offset="0.37" stop-color="#0099C1"/>
<stop offset="0.595" stop-color="#00AAC6"/>
<stop offset="1" stop-color="#005DB1"/>
</linearGradient>
<clipPath id="clip0_1_8">
<rect width="54" height="54" fill="white"/>
</clipPath>
</defs>
</svg>
